<?xml version="1.0" encoding="utf-8"?>
<!-- Svg Vector Icons : http://www.onlinewebfonts.com/icon -->
<!DOCTYPE svg PUBLIC "-//W3C//DTD SVG 1.1//EN" "http://www.w3.org/Graphics/SVG/1.1/DTD/svg11.dtd">
<svg version="1.1" xmlns="http://www.w3.org/2000/svg" xmlns:xlink="http://www.w3.org/1999/xlink" x="0px" y="0px" viewBox="0 0 1000 1000" enable-background="new 0 0 1000 1000" xml:space="preserve">
<metadata> Svg Vector Icons : http://www.onlinewebfonts.com/icon </metadata>
<g><path d="M824.6,458.4C822.2,317.5,707,203.5,566.2,203.5c-95.5,0-183.7,53.9-229.1,137.2c-20.8-14.7-45.3-23.3-71-23.3c-66.1,0-120.1,53.9-120.1,120.1c0,2.4,0,6.1,0,8.6C66.4,464.5,10,535.5,10,618.8c0,98,79.6,177.6,177.6,177.6H821c93.1,0,169-75.9,169-169C990,535.5,916.5,460.8,824.6,458.4z M821,772H187.6c-84.5,0-153.1-68.6-153.1-153.1c0-74.7,53.9-138.4,127.4-150.7l12.3-2.4l-2.5-12.3c-1.2-6.1-1.2-11-1.2-15.9c0-52.7,42.9-95.6,95.6-95.6c24.5,0,47.8,9.8,66.1,26.9l12.3,12.3l7.3-14.7c38-83.3,122.5-137.2,214.4-137.2c129.8,0,235.2,105.4,235.2,235.2c0,2.4,0,4.9,0,6.1v14.7l15.9-1.2c2.4,0,3.7,0,6.1,0C903,484.1,968,549,968,628.6C968,708.3,900.6,772,821,772z"/><path d="M386.1,493.9L386.1,493.9c-6.1,0-12.2,3.7-13.5,9.8l-62.5,158l22,8.6l18.4-45.3h72.3l18.4,45.3l22.1-8.6l-62.5-158C397.1,497.6,392.2,493.9,386.1,493.9z M359.1,600.4l26.9-68.6l27,68.6H359.1z"/><path d="M553.9,487.8h-74.7V500v105.4v61.3h23.3v-61.3h51.4c31.8,0,58.8-25.7,58.8-58.8C612.7,513.5,587,487.8,553.9,487.8z M553.9,580.9h-51.4v-68.6h51.4c19.6,0,34.3,15.9,34.3,34.3C588.2,564.9,573.5,580.9,553.9,580.9z"/><path d="M642.1,500h23.3v165.4h-23.3V500z"/></g>
</svg>